<svg width="32" height="32" viewBox="0 0 32 32" fill="none" xmlns="http://www.w3.org/2000/svg">
<path d="M9.5 8H6.5C5.67157 8 5 8.60442 5 9.35V24.65C5 25.3956 5.67157 26 6.5 26H9.5C10.3284 26 11 25.3956 11 24.65V9.35C11 8.60442 10.3284 8 9.5 8Z" fill="black"/>
<path d="M17.5 6H14.5C13.6716 6 13 6.61052 13 7.36364V24.6364C13 25.3895 13.6716 26 14.5 26H17.5C18.3284 26 19 25.3895 19 24.6364V7.36364C19 6.61052 18.3284 6 17.5 6Z" fill="black"/>
<path d="M25.5 8H22.5C21.6716 8 21 8.60442 21 9.35V24.65C21 25.3956 21.6716 26 22.5 26H25.5C26.3284 26 27 25.3956 27 24.65V9.35C27 8.60442 26.3284 8 25.5 8Z" fill="black"/>
</svg>
